<svg xmlns="http://www.w3.org/2000/svg" viewBox="0 0 32 32" fill="none">
  <rect width="32" height="32" rx="6" fill="#2563eb"/>
  <path d="M5 16 C5 13 7 11 10 11 L14 11 C15 11 15.5 11.5 16 12 C16.5 11.5 17 11 18 11 L22 11 C25 11 27 13 27 16 C27 19 25 21 22 21 L18 21 C17 21 16.5 20.5 16 20 C15.5 20.5 15 21 14 21 L10 21 C7 21 5 19 5 16 Z" stroke="white" stroke-width="1.5" fill="none"/>
  <circle cx="11.5" cy="16" r="2.5" fill="white" opacity="0.9"/>
  <circle cx="20.5" cy="16" r="2.5" fill="white" opacity="0.9"/>
</svg>
